<svg width="496.846" height="464.026" xmlns="http://www.w3.org/2000/svg"><path fill="#bf1e2d" d="M496.789 369.43c.038-6.567-2.796-9.738-9.574-9.506-7.018.235-14.05.05-20.877.05-2.583-17.554-1.97-15.693-17.968-15.815-.528-.006-1.065.069-1.581-.012-8.275-1.302-10.726 2.728-10.255 10.4.445 7.273.095 14.594.095 21.894l-3.451-.104c0-11.794-.003-23.594 0-35.39.003-21.414 2.101-19.576-20.296-19.823-7.07-.076-9.981 2.387-9.812 9.695.359 15.569-.093 31.16.201 46.733.104 5.582-1.43 8.281-7.405 8.142-4.13-.098-8.277-.124-12.481-.125v-57.198h-43.4l-7.665 59.9-4.736-32.63c-1.36-10.468-2.68-19.557-3.96-27.27h-43.162v128.277h29.156l.043-84.621 12.241 84.62h20.678l11.609-86.602.039 86.603h29.157v-58.475c6.636-.032 13.273.09 19.868.09 0 15.609-.072 29.75.017 43.889.155 25.112-2.956 21.392 21.959 21.737 6.365.087 8.478-3.072 8.582-8.63.084-4.425.019-8.849.019-14.731 7.623 0 14.152.101 20.679-.023 9.408-.181 10.822-1.676 10.894-11.245.059-7.422.014-14.843.014-22.263 1.853 5.535 1.409 13.204 4.896 16.036 3.625 2.945 11.052 1.141 16.809 1.552 6.676.475 9.721-2.45 9.661-9.212-.134-15.313-.088-30.63.006-45.944"/><path fill="#1b75bc" d="M190.77 375.593v-5.548c0-10.51-.978-18.526-2.93-24.045-1.956-5.519-6.155-10.287-12.599-14.301-6.445-4.014-14.553-6.024-24.325-6.024-9.93 0-18.025 2.313-24.284 6.933-6.26 4.624-10.05 9.708-11.37 15.255-1.322 5.545-1.98 14.446-1.98 26.7v11.007c-4.014.006-7.98.03-11.931.123-5.975.14-7.51-2.559-7.404-8.142.293-15.572-.159-31.163.201-46.734.168-7.306-2.742-9.769-9.813-9.693-22.399.245-20.297-1.59-20.295 19.823v35.39l-3.452.103c0-7.299-.35-14.62.095-21.892.47-7.673-1.98-11.703-10.255-10.401-.514.08-1.053.006-1.581.012-15.999.122-15.385-1.74-17.968 15.816-6.828 0-13.86.184-20.876-.052-6.779-.231-9.613 2.94-9.575 9.506.094 15.313.142 30.63.007 45.943-.06 6.762 2.985 9.688 9.661 9.213 5.756-.41 13.183 1.393 16.81-1.552 3.485-2.832 3.042-10.501 4.896-16.036 0 7.42-.046 14.841.012 22.263.072 9.569 1.488 11.064 10.894 11.244 6.526.124 13.056.024 20.68.024 0 5.881-.066 10.305.018 14.729.105 5.56 2.217 8.717 8.584 8.632 24.913-.347 21.802 3.375 21.958-21.737.088-14.139.016-28.28.016-43.888 6.412 0 12.863-.114 19.317-.09v14.5c0 8.82.316 15.436.951 19.848.635 4.41 2.219 8.622 4.759 12.636 2.537 4.015 6.25 7.382 11.14 10.103 4.888 2.72 10.134 4.08 15.74 4.08 4.702 0 8.786-.99 12.249-2.972 3.463-1.981 6.33-4.953 8.604-8.912l3.084 9.19h20.963v-68.853h-39.062v19.491h6.734v15.212c0 5.97-.435 9.984-1.307 12.045-.87 2.06-2.521 3.09-4.952 3.09-2.217 0-3.699-.911-4.436-2.735-.741-1.821-1.11-5.61-1.11-11.37v-61.563c0-6.548.369-10.617 1.11-12.203.737-1.584 2.139-2.377 4.199-2.377 2.376 0 3.882.927 4.514 2.775.636 1.85.952 6.446.952 13.786v11.648ZM234.825 378.921c-.613-8.661-3.314-25.51-8.101-50.549H196.08l23.453 81.845v46.432h30.9v-46.432l24.325-81.845h-30.644c-4.346 20.013-7.44 36.863-9.289 50.55"/><path d="M104.819 234.699h31.29v17.145h-12.816v16.25h11.411v16.298h-11.41v35.988h-18.475ZM160.932 289.788c-.935-9.704-1.873-21.697-2.815-35.985-1.882 16.404-3.064 28.401-3.545 35.985Zm9.79-55.09 10.569 85.68h-18.884l-.991-15.403h-6.61l-1.109 15.404h-19.102l9.424-85.681zM202.901 320.38h-18.474v-85.681H202.9zM249.464 260.628h-17.161v-6.35c0-2.96-.22-4.847-.656-5.66-.44-.81-1.17-1.22-2.195-1.22-1.113 0-1.953.55-2.523 1.645-.57 1.093-.856 2.75-.856 4.977 0 2.861.32 5.015.962 6.461.613 1.447 2.35 3.192 5.22 5.238 8.225 5.888 13.405 10.717 15.54 14.492 2.137 3.777 3.205 9.862 3.205 18.256 0 6.105-.595 10.605-1.779 13.497-1.184 2.89-3.473 5.319-6.867 7.275-3.396 1.958-7.344 2.94-11.849 2.94-4.945 0-9.164-1.134-12.66-3.388-3.497-2.258-5.786-5.139-6.868-8.626-1.085-3.493-1.624-8.45-1.624-14.87v-5.612h17.16v10.426c0 3.211.239 5.276.724 6.192.48.918 1.338 1.378 2.566 1.378 1.229 0 2.144-.584 2.744-1.748.598-1.167.898-2.894.898-5.188 0-5.042-.572-8.342-1.712-9.895-1.17-1.553-4.052-4.145-8.645-7.78-4.593-3.668-7.636-6.33-9.128-7.99-1.492-1.657-2.727-3.951-3.707-6.88-.981-2.927-1.47-6.669-1.47-11.22 0-6.563.693-11.36 2.082-14.394 1.39-3.033 3.638-5.406 6.738-7.117 3.1-1.71 6.848-2.567 11.236-2.567 4.795 0 8.883.935 12.265 2.803 3.378 1.872 5.617 4.227 6.713 7.067 1.097 2.838 1.647 7.666 1.647 14.475ZM278.938 289.788c-.934-9.704-1.874-21.697-2.813-35.985-1.884 16.404-3.065 28.401-3.547 35.985Zm9.791-55.09 10.565 85.68h-18.881l-.99-15.403h-6.61l-1.11 15.404H252.6l9.425-85.681zM320.91 234.699v68.532h11.234v17.149h-29.712v-85.681ZM346.406 234.699v7.672c0 3.988-.394 7.278-1.185 9.87-.792 2.594-2.157 4.783-4.103 6.566-1.946 1.78-4.148 2.986-6.604 3.621v-6.192c1.755-1.164 2.75-2.75 2.984-4.763h-2.984V234.7ZM390.86 260.628h-17.158v-6.35c0-2.96-.22-4.847-.657-5.66-.44-.81-1.172-1.22-2.196-1.22-1.11 0-1.954.55-2.524 1.645-.57 1.093-.856 2.75-.856 4.977 0 2.861.321 5.015.962 6.461.614 1.447 2.354 3.192 5.222 5.238 8.222 5.888 13.405 10.717 15.541 14.492 2.133 3.777 3.203 9.862 3.203 18.256 0 6.105-.592 10.605-1.776 13.497-1.187 2.89-3.478 5.319-6.87 7.275-3.393 1.958-7.344 2.94-11.849 2.94-4.944 0-9.164-1.134-12.661-3.388-3.496-2.258-5.784-5.139-6.867-8.626-1.084-3.493-1.622-8.45-1.622-14.87v-5.612h17.158v10.426c0 3.211.239 5.276.723 6.192.484.918 1.34 1.378 2.566 1.378 1.231 0 2.144-.584 2.743-1.748.599-1.167.9-2.894.9-5.188 0-5.042-.57-8.342-1.713-9.895-1.17-1.553-4.05-4.145-8.644-7.78-4.593-3.668-7.635-6.33-9.128-7.99-1.49-1.657-2.728-3.951-3.707-6.88-.981-2.927-1.47-6.669-1.47-11.22 0-6.563.693-11.36 2.084-14.394 1.388-3.033 3.636-5.406 6.737-7.117 3.1-1.71 6.847-2.567 11.233-2.567 4.797 0 8.887.935 12.265 2.803 3.38 1.872 5.62 4.227 6.715 7.067 1.099 2.838 1.645 7.666 1.645 14.475ZM160.363 182.75c-.272.194-.544.384-.82.577.233.58.425 1.18.704 1.736 3.642 7.25 8.646 13.517 13.98 19.573 7.52 8.546 15.678 16.539 22.149 25.99.393.576.77 1.16 1.144 1.744a513.825 513.825 0 0 0 7.17.277c-4.162-3.264-6.586-7.643-7.554-13.044-1.204-6.683-.457-13.153 1.687-19.532.17-.497.024-1.104.024-1.781-10.035 4.03-18.698.889-26.759-4.851-3.384-2.41-6.47-5.257-9.617-7.99-.846-.738-1.412-1.789-2.11-2.7zm62.098 28.91c-.322 1.6-.725 3.187-.952 4.799-.56 3.98-.977 7.983-1.566 11.953-.25 1.686-1.06 3.262-2.244 4.504 2.452.035 4.902.088 7.354.11-.186-4.014-.362-8.032-.586-12.046-.143-2.58-.527-5.15-.852-7.714-.067-.534-.356-1.032-.544-1.548l-.61-.055z" fill="#fff"/><path fill="#fff" d="M344.66.422c-.814.076-1.584.41-2.388.944-5.38 3.581-10.838 7.039-16.223 10.61-1.83 1.213-3.04 2.987-2.91 5.249a85.12 85.12 0 0 0 1.002 8.76c.105.622 1.01 1.278 1.695 1.602 1.614.77 3.306 1.39 4.994 1.992 3.146 1.122 6.318 2.806 9.328-.406 1.95 2.693 4.09 5.008 7.414 4.894 4.56-.153 9.126-.6 13.664-1.157 5.853-.717 10.423.063 13.045 6.865 2.572 6.671 5.888 13.054 8.8 19.595.47 1.057.813 2.296.768 3.432-.099 2.44-.624 4.86-.73 7.299-.194 4.616.65 9.089 2.572 13.532-.717-.034-1.232.042-1.689-.094-4.739-1.445-9.595-1.8-14.516-1.657-5.57.161-10.73 1.616-15.517 4.5-.621.375-1.652.555-2.305.319-9.478-3.448-19.178-4.807-29.232-3.526-8.863 1.13-16.947 4.099-23.16 10.676-2.507 2.652-4.608 4.139-7.99 1.979-.16-.101-.44.003-.644-.055-3.56-1.01-7.213-1.806-10.644-3.157-1.493-.587-3.24-2.137-3.613-3.58-.56-2.133-.177-4.587.123-6.859.656-4.97 1.496-9.916 2.322-14.86.091-.544.524-1.068.902-1.52 1.544-1.844 3.49-3.458 4.636-5.52 3.138-5.664 3.564-11.944 3.002-18.24-.118-1.302-1.364-2.773-2.492-3.64-1.152-.882-1.661-1.616-1.753-3.098-.183-2.846-.401-5.77-1.215-8.478-2.424-8.1-7.245-14.62-14.125-19.52-8.533-6.074-18.036-7.893-28.076-5.073-6.686 1.88-12.253 5.861-16.626 11.396-5.18 6.55-8.223 13.875-8.584 22.28-.035.772-.71 1.55-1.176 2.264-.87 1.332-2.26 2.507-2.627 3.95-1.127 4.48-.704 9.031.605 13.422 1.24 4.167 2.939 8.13 6.875 10.624.419.265.684.976.768 1.52.467 3.043.895 6.09 1.263 9.147.468 3.909.949 7.82 1.225 11.745.06.823-.547 1.956-1.21 2.504-1.135.936-2.477 1.79-3.873 2.208-4.76 1.428-9.578 2.655-14.505 3.995-1-1.13-1.97-2.395-3.112-3.48-7.645-7.275-16.967-10.456-27.325-11.04-8.212-.463-16.198.786-23.923 3.52-1.847.657-3.27.792-4.896-.488-1.039-.818-2.416-1.238-3.684-1.731-6.928-2.69-14.024-2.81-21.228-1.393-1.819.36-3.648.664-5.667 1.026 2.715-6.29 3.283-12.378 2.074-18.701-.255-1.333-.299-2.921.19-4.143 1.724-4.302 3.8-8.462 5.588-12.737 2.082-4.97 4.054-9.98 7.84-14 1.092-1.16 2.2-2.06 3.922-1.724 2.04.4 4.076.827 6.132 1.14 4.901.747 9.877 1.808 14.64-.343 2.021-.914 3.718-2.554 5.662-3.937.092.052.33.201.587.325 5.55 2.7 13.04.072 15.67-5.497 1.78-3.77.673-7.916-3.243-11.853-4.735-4.763-10.598-7.79-16.542-10.712-2.445-1.2-4.661-1.372-7.053.041-1.28.756-2.733 1.24-4.133 1.765-9.43 3.534-18.836 7.126-28.32 10.496-2.127.758-3.554 1.863-4.718 3.735-1.037 1.67-2.22 3.437-3.776 4.573C96.843 29.2 88.427 37.52 81.316 47.162 70.84 61.379 63.55 77.246 57.32 93.661c-1.053 2.77-2.293 5.47-3.445 8.2v6.516c.618.552 1.245 1.094 1.853 1.66 8.67 8.073 17.183 16.325 26.045 24.182 8.96 7.945 18.69 14.808 30.3 18.481 6.008 1.903 12.137 3.048 18.477 2.183 4.452-.607 8.9-1.264 13.747-1.956.761 2.997 1.708 6.404 2.487 9.847.774 3.413 1.276 6.886 2.073 10.29 2.503 10.672 8.641 19.306 15.624 27.44 6.233 7.268 12.683 14.362 18.676 21.827a52.32 52.32 0 0 1 6.15 9.632c1.033.056 2.069.107 3.102.165-2.673-6.2-6.613-11.657-11.004-16.858-7.475-8.855-15.104-17.59-22.277-26.683-5.107-6.472-7.84-14.127-8.8-22.353-.11-.951-.014-1.922-.014-2.654 2.366 3.012 4.507 6.222 7.131 8.974 4.664 4.896 10.621 7.39 17.28 8.366 8.408 1.236 16.417.107 24.147-3.464 8.173-3.773 14.269-9.633 17.924-17.832 1.117-2.5 1.664-5.329 2.026-8.066.395-2.983 2.654-4.406 4.534-6.036 1.4-1.214 3.394-1.746 5.377-2.704.555 2.617-1.11 4.361-1.435 6.373-.64 3.973-2.272 7.808-1.621 11.98.448 2.901.417 5.9 1.081 8.741 1.566 6.684 4.538 12.43 11.541 14.99 3.723 1.36 4.351 1.129 5.72-2.595 1.787-4.84 1.876-9.84 1.206-14.893-.544-4.086-1.198-8.167-1.534-12.274-.129-1.58.303-3.276.783-4.824 1.979-6.348.592-12.354-1.712-18.264-2.93-7.502-8.11-13.14-14.85-17.395-.918-.582-2.082-.772-3.135-1.146a124.76 124.76 0 0 1-.31.747c.489.29.962.608 1.467.862 9.04 4.543 14.29 11.868 15.48 21.862.563 4.737.573 9.562.556 14.346-.027 7.72-.29 15.443-.439 23.164-.04 2.131.143 4.287-.118 6.388-.272 2.21-1.976 2.87-3.715 1.52-5.102-3.954-7.956-9.276-8.316-15.653-.262-4.63.027-9.31.36-13.944.219-3.036 1.084-6.021 1.406-9.055.176-1.68-.17-3.416-.3-5.43-.772.121-1.572.07-2.203.373-6.373 3.081-13.053 3.095-19.565 1.123-10.524-3.19-18.235-9.75-21.88-20.456-1.222-3.59-1.595-7.307-1.3-11.073.146-1.902-.354-3.486-1.534-4.978-4.082-5.16-9.044-9.05-15.516-10.657-1.838-.457-3.806-.397-5.817-.175 8.412 3.107 17.21 5.408 21.293 14.388l-.557.8c-.467-.32-1.028-.554-1.379-.972-5.522-6.55-12.53-10.72-20.853-12.454-5.019-1.044-10.15-1.223-15.107.66-.229.086-.433.24-.6.79 1.244 0 2.495.108 3.726-.016 10.649-1.076 20.258 1.187 28.236 8.738.414.394.816.817 1.138 1.289.918 1.357 1.791 2.747 2.958 4.547-6.491.16-12.278-4.312-18.476-1.906-.027.24-.051.482-.072.723 1.562.2 3.142.325 4.693.61 5.8 1.063 10.208 4.115 12.803 9.466 2.86 5.897.36 10.841-5.124 13.813-.35.19-.846.093-1.258.187a5.177 5.177 0 0 0-1.261.436c-.068.034.016.677.153.736.491.205 1.123.516 1.547.364 3.497-1.256 7.155-2.246 9.71-5.256.222-.262.537-.448 1.053-.866.577 2.507.149 4.711-1.383 6.28-4.09 4.206-9.07 5.52-14.727 3.591-4.266-1.453-8.85-2.383-12.685-4.603-5.367-3.108-10.45-6.92-12.933-13.076-1.792-4.44-5.459-7.353-8.743-10.554-.343-.336-1.424.084-2.63.193 5.063 7.181 9.757 13.75 15.758 19.208 3.17 2.88 6.455 5.748 10.088 7.957 2.748 1.671 6.133 2.291 9.237 3.378.32.112.643.222.946.852-1.562 0-3.25.392-4.655-.079-3.7-1.241-7.572-2.38-10.84-4.421-7.323-4.57-12.365-11.467-17.177-18.483-.52-.76-1.066-1.501-2.112-2.135.141 1.024.242 2.055.437 3.07 1.485 7.737-1.821 12.71-9.593 13.766a36.28 36.28 0 0 1-9.676-.024c-11.534-1.568-22.228-5.789-32.581-10.942-.74-.367-1.418-.867-2.124-1.306l.084-.797c1.314-.052 2.684-.365 3.94-.117 7.348 1.45 13.932 4.728 20.271 8.61 1.88 1.152 4.006 1.907 6.04 2.791.347.15.816.023 1.496-.437-1.337-1.116-2.636-2.29-4.025-3.34-6.21-4.68-13.55-6.687-20.872-8.686-7.594-2.07-15.328-3.758-21.981-8.3-1.173-.802-2.29-1.693-3.293-2.951 1.886.286 3.784.516 5.657.869 9.36 1.767 18.484.893 27.275-2.707 5.529-2.266 10.929-7.118 12.838-13.618-.792.404-1.333.602-1.781.928-4.899 3.517-9.88 6.918-15.717 8.674-2.387.719-4.91 1.076-7.4 1.326-.642.064-1.644-.752-2.04-1.427-1.82-3.101-.443-6.132.504-9.119.993-3.125 2.64-6.14 3.054-9.328 1.335-10.278 6.906-18.196 13.406-25.701 2.569-2.963 9.686-8.124 12.787-9.023-2.484 4.638-4.818 8.912-7.076 13.228-2.237 4.284-4.28 8.643-4.383 13.614 2.937-2.998 3.015-7.634 6.335-10.479 1.592 6.127-.144 22.43-7.762 25.303l-1.043-5.095-1.053-.021c-.368 1.806-1.03 3.613-1.035 5.42-.002 1.798 1.43 3.005 3.214 2.704 2.933-.494 6.02-.946 8.64-2.236 2.953-1.452 5.42-1.535 8.093.22 3.208 2.11 5.944 4.548 6.316 8.709.04.472.096.947.157 1.508 1.604-1.439 1.587-3.101.045-7.072 1.616.692 1.87.912 2.45 3.697.3 1.446.204 2.97.31 4.823 1.88-1.27 2-2.873 1.712-4.46-.528-2.912-2.293-5.17-4.645-6.773-2.557-1.744-5.376-3.114-8.07-5.022 1.357.33 2.786.495 4.066 1.022 4.8 1.973 8.833 4.853 10.233 10.186.703 2.686.68 5.47-1.046 7.864-.356.498-1.51.99-1.95.776-4.118-2-8.569-2.264-12.986-2.714-2.214-.224-4.43-.34-6.934-.524.968-1.996 2.622-2.304 4.29-2.544.57-.082 1.177.057 1.73-.07.351-.08.634-.466.95-.714-.259-.303-.454-.763-.779-.884-2.628-.996-7.827 1.692-8.419 4.513-.142.656.635 2.005 1.27 2.224 1.461.503 3.086.6 4.656.693 2.65.163 5.318.368 7.964.254 6.216-.271 10.026 3.125 12.904 8.09.874 1.516 1.754 3.03 2.634 4.547l.516-.178c-.298-1.982-.745-3.954-.88-5.946-.44-6.68-.07-13.243 5.52-17.979 5.026-4.257 11.074-6.372 17.608-6.682 9.979-.474 18.96 2.5 26.927 8.52.44.333.91.632 1.368.946l.6-.473c-.888-1.12-1.55-2.641-2.707-3.285-3.729-2.08-7.562-4.026-11.51-5.658-2.527-1.044-5.322-1.444-8-2.133.04-.16.069-.404.114-.407 5.863-.442 11.684-.826 16.431 3.8.704.687 2.077.688 3.147 1.007-.56-.907-1.066-1.847-1.691-2.701-.301-.414-.82-.667-1.24-.995l.247-.701c2.54.68 5.137 1.212 7.617 2.074 5.09 1.772 9.681 4.395 13.077 8.72.368.467.267 1.299.386 1.96-.52-.42-1.087-.8-1.542-1.277-.505-.533-.914-1.16-1.702-2.183-.234.992-.422 1.424-.408 1.847.013.492.393 1.02.29 1.457-.222.98-.645 1.91-.988 2.864-.552-.792-1.273-1.516-1.624-2.39-.52-1.32-.737-2.762-1.197-4.115-.12-.347-.67-.55-1.019-.82-.253.44-.822 1.01-.706 1.304 1.892 4.66-.686 9.035-.754 13.544-.026 1.863.51 3.783 1.094 5.576.186.573 1.413 1.198 2.064 1.105.577-.083 1.373-1.09 1.453-1.761.737-6.253 5.075-8.736 10.427-10.227 4.197-1.17 8.453-2.173 12.59-3.53 3-.986 5.6-2.738 7.067-5.935-7.288 5.408-15.957 6.15-24.34 7.833a24.822 24.822 0 0 1-.247-.645c2.615-.979 5.206-2.724 7.85-2.803 9.564-.284 15.276-5.438 18.697-13.741 2.42-5.883 4.563-11.88 6.761-17.85.176-.48-.182-1.158-.288-1.743-.71.142-1.85.066-2.053.465-1.02 2.019-1.804 4.16-2.667 6.26-.542 1.327-1.077 2.653-1.81 4.463-2.494-4.443-2.714-8.558-1.431-12.616 2.052-6.496 6.21-11.122 13.054-12.783 3.351-.813 6.68-.548 9.94.756.782.312 1.936.223 2.73-.117 9.316-4.008 19.076 1.936 22.69 10.133 1.896 4.299 2.067 8.587.091 12.9-.193.419-.49.79-1.044 1.672-.676-1.73-1.205-3.004-1.668-4.303-.627-1.748-1.05-3.586-1.861-5.24-.378-.774-1.416-1.261-2.244-1.73-.09-.051-1.194 1.093-1.078 1.36 3.304 7.658 4.878 16.017 9.474 23.16 3.74 5.806 8.981 8.456 15.813 8.94 2.896.205 5.693 1.816 8.536 2.786l-.19.707c-4.202-.793-8.517-1.235-12.578-2.473-4.107-1.252-7.972-3.294-12.29-4.772 1.127 1.07 2.153 2.273 3.393 3.186 3.925 2.88 8.713 3.467 13.229 4.77 2.268.652 4.576 1.212 6.773 2.05 3.96 1.512 6.116 4.516 6.872 8.672.152.827.994 1.528 1.52 2.288.692-.528 1.523-.943 2.056-1.6 1.724-2.108 1.342-4.662 1.111-7.07-.283-2.992-.933-5.948-1.303-8.936-.162-1.32-.025-2.678-.025-4.34-3.07 2.024-1.968 5.516-3.15 8.188-2.695-1.467-1.86-3.775-2.12-6.311-.92 1.08-1.842 2.156-2.765 3.236l-.516-.239c.166-.5.24-1.061.518-1.488 3.154-4.813 7.921-7.38 13.162-9.168 2.516-.861 5.154-1.384 7.734-2.06l.21.55c-.808.664-1.725 1.234-2.393 2.02-.43.506-.501 1.322-.733 2 .697-.12 1.508-.052 2.073-.395 2.025-1.217 3.867-2.77 5.96-3.833 3.708-1.884 7.704-.722 11.637-.514-4 1.21-8.117 2.134-11.966 3.708-3.852 1.578-7.952 3.123-10.12 7.09.12.182.24.365.364.549 1.29-.805 2.593-1.599 3.876-2.412 8.1-5.137 16.986-7.42 26.506-6.67 6.379.503 12.103 3.053 16.81 7.427 2.55 2.372 3.454 5.728 4.094 9.078.879 4.61.417 9.168-.633 13.698-.053.235.027.501.459.912.635-1.139 1.253-2.29 1.909-3.416 2.114-3.62 4.14-7.48 8.522-8.708 2.787-.782 5.763-.986 8.675-1.218 2.445-.194 4.935.093 7.373-.132 1.063-.1 2.776-.807 2.911-1.49.19-.982-.573-2.373-1.315-3.273-1.436-1.743-3.449-2.607-5.738-2.48-.728.04-1.434.507-2.147.779.683.306 1.36.852 2.053.874 1.96.066 3.646.55 5.203 2.462-2.099.23-3.901.474-5.707.62-4.216.338-8.456.442-12.48 2.008-1.08.418-2.98 1.104-3.27.725-.95-1.247-1.728-2.893-1.863-4.445-.497-5.711 2.416-9.796 7.053-12.623 1.963-1.196 4.363-1.693 6.584-2.436.374-.125.87.112 1.36.392-5.938 2.287-11.894 4.463-13.233 11.713-.2 1.09.308 2.31.863 3.459 1.502-2.875.626-6.536 3.85-8.813-.377 2.66-2.577 5.11-.125 8.038.223-.882.4-1.336.437-1.8.52-7.161 7.778-11.8 14.471-9.246 2.199.838 4.393 1.71 6.639 2.386 3.262.984 4.653-.08 4.613-3.41-.017-1.247-.219-2.492-.357-3.947-.71.345-.903.372-.96.475-2.415 4.298-4.526 2.917-6.11-.22-3.193-6.32-4.426-13.138-3.882-20.234.024-.333.15-.66.288-1.226 3.613 2.738 3.553 7.437 6.697 10.934.047-1.056.193-1.65.076-2.19-1.317-6.103-4.245-11.516-7.313-16.871-1.416-2.481-2.72-5.027-3.756-8.023 1.434.815 2.916 1.56 4.301 2.452 8.92 5.734 14.656 14.019 18.807 23.57 3.502 8.06 5.326 16.58 6.9 25.165.381 2.08-.198 2.544-2.62 2.896-5.024.727-9.606-.613-13.84-3.075-3.202-1.858-6.64-3.481-8.854-6.75-.36-.54-1.568-.52-2.384-.758.08.7-.048 1.51.263 2.084 4.128 7.624 10.701 12.004 18.953 14.099 8.507 2.16 16.955 1.703 25.355-.612.437-.12.893-.167 1.34-.25.115.214.236.425.352.64-2.441 1.65-4.692 3.766-7.364 4.853-5.804 2.36-11.779 4.315-17.753 6.205-6.547 2.07-13.355 3.442-19.256 7.173-1.966 1.241-3.668 2.897-5.494 4.365.102.21.2.423.302.634.693-.13 1.456-.11 2.062-.41 3.084-1.525 6.194-3.016 9.174-4.733 4.944-2.85 10.224-4.765 15.778-5.928 1.146-.24 2.38-.033 3.574-.033.036.273.077.55.116.822-1.676.671-3.36 1.318-5.02 2.015-7.58 3.187-15.042 6.677-22.758 9.49-6.406 2.338-13.164 3.353-19.769.497-2.395-1.034-4.648-2.522-6.726-4.12-2.018-1.552-1.954-4.388-.04-7.214 1.21-1.792 2.16-3.573 1.434-6.326-.657.63-1.19 1.032-1.586 1.541-4.02 5.16-7.574 10.77-12.147 15.379-3.957 3.986-8.583 7.698-14.467 8.81-2.49.471-5.07.484-7.604.206 3.283-1.175 6.696-2.088 9.835-3.578 8.633-4.102 14.596-11.217 20.253-18.614 1.708-2.232 3.467-4.427 5.094-6.713.373-.52.297-1.355.425-2.044-.557.31-1.24.505-1.661.949-6.095 6.444-11.822 13.29-18.338 19.277-5.52 5.072-12.092 8.827-20.113 8.565-4.31-.14-8.115-1.754-11.56-4.206-1.87-1.33-2.179-4.078-.853-6.28 3.002 2.633 6.398 4.545 10.302 5.386.667.144 1.439-.18 2.164-.288-.352-.626-.556-1.458-1.082-1.838-1.8-1.292-3.771-2.34-5.563-3.639-3.067-2.227-3.83-5.187-1.947-8.481 3.272-5.715 8.578-8.676 14.799-10.157 1.485-.356 3.05-.38 4.581-.555.07-.19.14-.377.216-.565-.808-.35-1.582-.9-2.416-1-1.125-.138-2.32-.067-3.438.149-4.324.84-8.63 1.772-13.536 2.792 1.473-3.068 3.017-5.453 5.226-7.223 8.084-6.488 17.332-8.941 27.614-7.594 1.22.16 2.48.024 3.724.024.06-.21.12-.415.184-.623-.771-.347-1.51-.801-2.314-1.027-8.41-2.35-16.048-.077-23.324 4.046-3.313 1.877-6.497 3.968-9.753 5.946-.952.586-1.939 1.124-3.027 1.527 2.034-3.881 5.123-6.668 9.038-8.416 3.742-1.672 7.626-3.015 11.616-4.568-2.002-1.527-4.096-.707-5.903-.099-6.372 2.152-12.064 5.33-15.855 11.248-.893 1.395-.95 2.607-.898 4.158.24 7.174-1.894 13.7-5.876 19.655-2.77 4.146-6.274 7.6-10.627 9.916-8.153 4.338-16.48 5.14-24.733.04-1.574-.968-3.026-.516-4.443.41-1.387.906-.805 2.1-.561 3.293.95 4.71 2.364 9.396 2.653 14.15.33 5.367.83 10.898-1.143 16.167-1.656 4.414-4.154 8.138-8.362 10.574-1.404.809-2.176.506-2.536-.926-.47-1.869-1.07-3.758-1.147-5.66a188.758 188.758 0 0 1-.028-13.021c.196-6.343.787-12.684.77-19.023-.015-5.04.786-9.82 2.466-14.536 2.33-6.529 6.759-11.06 12.884-14.077.764-.376 1.513-.788 2.263-1.193.038-.021.03-.13.186-.867-1.824.6-3.453.898-4.842 1.636-8.002 4.256-12.684 11.035-14.632 19.79-.622 2.789-1.536 5.58-1.643 8.4-.156 4.013.435 8.05.477 12.08a128.626 128.626 0 0 1-.382 11.385c-.416 5.3-1.362 10.582.621 15.788 1.813 4.761 4.24 5.438 8.65 2.729 3.827-2.36 5.398-6.39 7.053-10.292 1.858-4.37 3.534-8.885 3.341-13.65-.133-3.23-1.35-6.413-2.068-9.623-.617-2.746-1.217-5.496-1.932-8.727 4.037 1.893 7.152 4.213 9.521 7.245.934 1.194.502 3.37.968 5.02 3.219 11.378 10.651 19.064 21.374 23.57 7.441 3.13 15.344 4.05 23.276 2.605 9.922-1.813 18.009-6.612 22.836-15.91.126-.247.3-.47.452-.707l.682.137c-.493 2.632-.822 5.308-1.51 7.893-2.4 8.982-7.254 16.64-13.116 23.731-7.48 9.05-15.108 17.993-22.363 27.223a47.38 47.38 0 0 0-5.725 9.3h3.31c.235-.475.447-.952.702-1.423 4.649-8.595 11.194-15.677 17.506-22.976a578.02 578.02 0 0 0 13.91-16.78c7.384-9.224 8.954-20.567 11.37-31.6.516-2.37.284-5.043 2.13-6.935 1.192.326 2.214.676 3.268.878 1.057.204 2.157.166 3.208.394 9.79 2.131 19.28 1.038 28.56-2.56 12.36-4.789 22.677-12.678 32.22-21.61 7.353-6.884 14.377-14.123 21.475-21.273.534-.54.808-1.726.646-2.494-.527-2.506-1.33-4.956-2.004-7.433-3.856-14.164-9.484-27.581-17.075-40.148-7.03-11.639-15.544-22.03-26.257-30.493-4.198-3.31-8.24-6.723-11.278-11.207-.716-1.059-1.816-2.13-2.973-2.561-4.016-1.49-8.179-2.57-12.197-4.048-8.31-3.059-16.577-6.25-24.837-9.44a4.874 4.874 0 0 0-1.184-.304 3.867 3.867 0 0 0-.832-.01zm-.176 2.081c.317.004.653.07 1.026.2 5.25 1.846 10.54 3.595 15.824 5.354 4.45 1.48 8.827 3.092 12.081 6.702.371.412.503 1.042.743 1.568-.647.094-1.299.256-1.944.251-.517-.005-1.033-.217-1.907-.423 1.142 2.608 3.404 2.66 5.18 3.11 3.744.946 6.882 2.405 8.374 6.288.19.492 1.018.734 1.55 1.093.008-.63.208-1.34-.017-1.87-.427-.998-1.099-1.891-1.667-2.829.154-.109.31-.22.467-.329.744.876 1.459 1.79 2.247 2.63 4.83 5.149 9.728 10.234 14.502 15.437 6.943 7.569 13.384 15.48 15.694 25.864 1.8 8.102 4.284 16.068 3.884 24.573-.138 2.952.912 5.959 3.864 7.755.462.282.533 1.2.437 1.984-2.877-1.955-4.43-4.831-5.264-7.867-3.003-10.91-6.868-21.4-13.467-30.715-4.197-5.922-8.95-11.39-15.29-15.022-3.54-2.027-4.97-5.352-7.004-8.408-2.975-4.479-6.254-8.696-11.318-11.015-3.31-1.512-6.84-1.857-9.867.284-2.767 1.953-5.794 1.897-8.8 2.173-1.85.172-3.74-.217-5.616-.289-1.94-.075-3.02-.781-2.467-2.936.065-.253-.09-.561-.264-1.467-2.152 2.822-4.445 1.978-6.797 1.147-.608-.216-1.392-.088-2.06.043-3.507.685-7.267-.814-8.763-3.638-.261-.493-.396-1.352-.133-1.74.268-.404 1.258-.769 1.633-.577a21.885 21.885 0 0 1 3.76 2.485c.597.484.923 1.3 1.764 2.551.44-1.563.69-2.443.98-3.453.437.293.81.613 1.239.81 1.028.47 1.589.344 1.614-1.032.01-.62.523-1.51 1.063-1.797 2.79-1.476 3.235-3.047 1.187-5.421-.776-.907-1.79-1.683-2.844-2.256-2.095-1.144-2.595-.808-3.05 1.53-.352 1.794-1.693 2.62-3.352 2.892-1.67.282-3.266.12-4.404-1.69 3.382-2.442 6.604-4.944 10.012-7.167 2.103-1.373 4.367-1.28 6.744-.053 1.316.684 3.059.541 4.608.77.08-.3.167-.6.25-.902l-7.17-2.994c1.012-1.066 1.787-1.614 2.738-1.604zm-191.747.016c1.066.115 2.13.702 3.187 1.907l-7.813 2.568c1.678 1.539 3.636 1.39 5.096.52 3.328-1.997 6.2-1.199 8.996.817 2.728 1.966 5.362 4.062 8.132 6.171-.843 1.344-1.912 2.263-3.516 1.623-1.538-.616-3.982-.054-3.93-2.978.027-1.7-1.61-2.442-3.306-1.346-1.542.997-2.86 2.374-4.147 3.712-.735.762-.845 1.874.42 2.225 2.77.77 4.216 2.33 3.43 5.555.189-.01.382-.016.57-.027.724-.857 1.445-1.716 2.172-2.575l.667.14c-.144 1.078-.292 2.154-.438 3.232l.424.483c.756-.739 1.831-1.34 2.214-2.236 1.178-2.787 2.978-3.339 5.306-1.377-1.421 3.778-3.989 5.173-7.982 4.605-1.146-.165-2.432.136-3.567.499-2.2.705-4.296 1.217-6.227-1.26.51 3.184.004 3.993-2.941 4.133-3.652.179-7.324.043-10.987-.04-.489-.01-.986-.47-1.45-.77-5.574-3.617-9.859-3.053-15.067.76-4.367 3.197-7.527 7.52-9.912 12.331-.947 1.907-2.285 3.08-4.03 4.172C97.98 51.662 91.03 60.693 85.79 71.166c-3.37 6.74-5.776 13.835-7.624 21.133-.23.904-.804 1.723-1.216 2.582l-.52-.16c.152-.994.33-1.984.453-2.982.73-5.76 1.236-11.56 2.216-17.274 2.3-13.422 7.838-25.231 17.682-34.911 5.175-5.09 10.015-10.523 15.011-15.797.291-.306.627-.568 1.311-1.179-.472 1.6-.808 2.748-1.145 3.9.188.136.376.272.562.41.472-.454 1.17-.822 1.375-1.373 1.383-3.73 4.427-5.2 7.941-6.192 1.696-.48 3.318-1.225 4.947-1.916.236-.1.317-.566.583-1.089l-4.299.507c1.464-3.044 3.515-4.703 5.832-5.648 4.484-1.832 9.173-3.17 13.73-4.84a72.926 72.926 0 0 0 7.63-3.294 5.08 5.08 0 0 1 1.413-.486 3.76 3.76 0 0 1 1.066-.038zm92.359 1.312c.736-.013 1.488.04 2.257.178 2.6.468 5.32.208 7.967.493 6.093.663 10.938 3.917 15.033 8.144 6.847 7.072 10.68 15.501 9.701 25.553-.278 2.886-1.38 5.692-2.1 8.534l-.96-.206c.354-2.249.671-4.506 1.063-6.748 1.757-9.997-1.247-18.41-8.445-25.418-.414-.403-1.026-.602-1.802-.578 1.278 1.847 2.707 3.607 3.808 5.556 3.874 6.862 4.914 14.143 2.864 21.803-1.352 5.037-4.5 6.875-9.662 5.739-2.383-.522-4.774-1.014-7.186-1.37-2.745-.405-5.233.36-7.562 1.878-.572.373-1.73.608-2.179.288-3.533-2.52-7.336-2.627-11.355-1.639a59.87 59.87 0 0 1-5.258 1.077c-3.724.574-6.533-1.404-8.08-5.516-1.412-3.777-1.165-7.689-.607-11.51.459-3.156 1.366-6.303 2.496-9.294.634-1.67 2.103-3.029 3.234-4.5.62-.809 1.316-1.556 2.249-2.649-3.145.53-6.344 4.387-8.485 9.01-1.814 3.915-3.188 7.86-2.751 12.222.41 4.083.939 8.15 1.399 12.055-1.988-2.387-2.838-5.559-3.11-8.807-.77-9.173 2.496-17.043 8.375-23.901 3.47-4.054 7.61-7.299 12.733-9.027 2.075-.7 4.153-1.33 6.363-1.367zm-131.992 13.54.75.642c-2.305 2.686-4.606 5.378-6.91 8.065l-.595-.517zm270.463.447c2.35.325 3.802 1.864 7.895 7.943-.163.146-.325.29-.484.434-2.396-2.706-4.787-5.413-7.41-8.377zM372.67 30.441c.987.917 2.07 1.749 2.943 2.765 3.912 4.56 5.884 10.1 7.844 15.657 1.114 3.16 2.312 6.312 3.79 9.312.95 1.932 1.536 3.68 1.02 5.862-1.004 4.24-.142 8.438.698 12.609.445 2.215.88 4.43 1.317 6.644l-.54.233c-.76-1.624-1.743-3.182-2.243-4.881-1.504-5.139-1.2-10.393-.764-15.659.122-1.429-.006-3.073-.613-4.333-2.803-5.812-5.901-11.481-8.715-17.29-1.576-3.25-2.1-7.033-5.073-9.551-.183-.16-.095-.643.336-1.368zm-247.422.39c-.128.555-.072 1.292-.413 1.634-2.447 2.436-3.072 5.74-4.436 8.712-2.148 4.677-4.484 9.296-7.139 13.701-2.47 4.107-2.336 8.29-1.853 12.773.562 5.276-.327 10.422-2.919 15.167-.133.25-.213.535-.32.8l-.639-.383c.566-2.677 1.203-5.341 1.678-8.034.752-4.268 1.034-8.548.036-12.842-.15-.626-.04-1.406.2-2.016 2.293-5.765 4.637-11.512 6.98-17.261 1.746-4.285 3.813-8.383 7.23-11.616.388-.365 1.058-.43 1.595-.635zm158.344 8.311c.753.903 1.64 1.47 1.658 2.064.179 6.113.123 12.223-2.5 17.952-.37.812-.857 1.57-1.293 2.355 1.01-5.634 1.133-11.083.507-16.635-.182-1.616.913-3.375 1.626-5.736zm-69.999.337 1.328.334c.166 2.693.342 5.388.5 8.082.262 4.483.51 8.966.79 13.811-.888-2.048-2.13-3.875-2.434-5.847-.71-4.593-1.04-9.256-1.346-13.901-.054-.796.753-1.65 1.162-2.479zm192.905 1.004c2.936 1.088 4.297 3.674 6.027 5.707 8.886 10.436 14.126 22.877 19.093 35.445 1.735 4.384 3.307 8.836 5.133 13.182.774 1.834.488 3.234-.94 4.38-2.032 1.634-4.173 3.13-6.09 4.553-.844-5.728-1.695-10.955-2.358-16.207-.426-3.342-.417-6.742-.877-10.08-1.227-8.942-5.141-16.818-10.207-24.126-3.022-4.36-6.417-8.459-9.78-12.854zm-316.136.876c.193.174.393.346.589.52l-8.147 9.13-.524-.456c2.694-3.067 5.39-6.128 8.082-9.194zm-9.938 12.296.106.118c-2.032 4.22-4.318 8.34-6.031 12.685-2.373 6.01-3.73 12.297-4.179 18.792-.221 3.179-1.141 6.304-1.506 9.481-.222 1.91-.006 3.872.053 5.81.033.98.161 1.96.276 3.353-3.624-1.616-6.43-3.605-8.545-6.49-.214-.297-.091-.974.076-1.398 5.437-13.85 10.298-27.963 18.453-40.575.397-.616.863-1.186 1.297-1.776zm-.9 8.934c-2.01 10.562-3.894 20.466-5.777 30.372.476-10.211.983-20.407 5.777-30.372zm338.593.997c5.14 9.215 5.298 19.453 6.416 29.496-.171.052-.343.11-.514.164-.336-1.193-.885-2.373-.966-3.584-.567-8.333-2.318-16.43-4.616-24.427-.156-.536-.214-1.098-.32-1.649zM371.76 83.599c2.533.075 5.153.64 7.897 1.79-5.8 2.749-9.81 6.758-12.424 12.05-1.884-1.554-3.758-3.04-5.528-4.637-.217-.195-.073-1.141.214-1.487 2.62-3.178 6.198-4.152 10.137-4.213.29-.007.621.09.857-.024.456-.223.85-.56 1.275-.85-.424-.286-.88-.86-1.266-.817-2.826.335-5.672.63-8.435 1.262-1.907.436-3.694 1.389-6.22 2.38.676-1.08.894-1.9 1.414-2.19 3.886-2.154 7.86-3.39 12.08-3.264zm-244.098.006c3.088.176 6.066 1.06 9.014 2.517 1.063.523 2.567.793 2.204 2.847-4.84-2.398-9.698-4.07-15.01-3.494l-.338.647c.52.327 1.003.84 1.56.947 2.107.394 4.378.306 6.326 1.066 1.784.699 3.253 2.23 4.78 3.494.162.136-.062 1.12-.379 1.398-1.65 1.45-3.38 2.8-5.277 4.34-2.576-5.117-6.534-9.286-12.568-12.018 3.398-1.387 6.598-1.92 9.688-1.744zm-51.33 11.74c-.75 3.214-1.907 4.469-4.195 4.013 1.493-1.43 2.784-2.663 4.194-4.013zm5.286 29.81c1.428.27 2.32.308 3.107.613 6.52 2.538 12.978 5.227 19.533 7.667 6.216 2.312 12.584 4.093 19.338 3.15 4.382-.61 8.194-2.454 11.298-5.671a52.61 52.61 0 0 1 1.676-1.687c.077-.076.27-.03.592-.057-.526 2.021-1.318 3.61-3.238 4.704-6.274 3.57-12.946 5.333-20.172 4.926-5.068-.284-9.83-1.813-14.575-3.469-1.651-.573-3.442-.743-5.17-1.096l-.413.565c.444.736.793 1.558 1.356 2.187 3.157 3.516 7.436 5.29 11.514 7.408 6.16 3.2 12.378 2.296 18.65.575 2.064-.567 4.274-.89 6.133-1.866 2.707-1.416 5.156-3.32 7.71-5.022.531-.354 1.035-.74 1.538-1.099 2.137 1.687 4.027 3.173 6.08 4.796-2.19 1.027-4.21 2.015-6.267 2.93-9.12 4.08-18.818 4.854-28.518 3.877-3.87-.39-7.683-2.668-11.232-4.614-7.248-3.968-13.05-9.648-17.79-16.405-.375-.54-.58-1.205-1.15-2.412zm332.963.237c.508.02 1.097.072 1.81.072-7.134 10.491-15.473 19.04-27.234 22.164-13.03 3.466-25.836.756-38.186-5.64l6.256-5.52c8.618 8.038 18.847 11.051 30.438 9.62 5.93-2.952 12.4-5.08 16.727-10.964-2.047-1.369-3.98-.404-5.672.2-6.28 2.235-12.618 3.956-19.372 3.454-6.046-.45-11.656-2.279-16.61-5.76-1.125-.794-1.637-2.455-2.429-3.718l.414-.244c1.789 1.502 3.466 3.172 5.393 4.476 5.976 4.044 12.661 4.326 19.224 2.316 7.564-2.316 14.893-5.405 22.317-8.178 1.873-.7 3.697-1.555 5.596-2.163.392-.125.819-.136 1.328-.115zm-222.093 11.796c.63.01 1.242.275 1.87.686 2.34 1.525 4.614 3.152 6.928 4.717.477.321.988.636 1.529.819 5.024 1.701 7.29 4.641 7.385 9.761.052 2.819.216 5.66-.086 8.444-.146 1.305-1.036 2.733-1.992 3.708-3.327 3.387-6.456 7.187-10.388 9.683-3.112 1.966-7.246 2.816-11.011 3.152-6.81.608-13.556-.064-20.24-2.163-6.787-2.13-10.364-6.947-12.648-13.025-1.036-2.76-1.237-5.854-1.63-8.823-.095-.732.305-1.9.87-2.28 2.193-1.473 4.432-2.843 7.39-1.905 2.234.71 4.697.72 6.893 1.5 1.266.446 2.22 1.794 3.292 2.762.626.566 1.098 1.482 1.813 1.726 3.593 1.216 7.237 2.274 10.867 3.358.41.123.86.114 1.293.131 1.333.052 2.688-.287 2.739-1.739.013-.462-1.627-1.278-2.587-1.426-3.387-.528-6.74-.963-8.612-4.392-.164-.298-.23-.647-.379-1.09 4.559-1.97 9.771-2.937 11.834-8.328-4.067 1.26-7.624 3.887-11.943 4.216l-.203-.536c1.018-.4 2.014-.898 3.064-1.18 4.623-1.236 8.478-3.822 11.988-6.924.694-.614 1.338-.86 1.966-.852zm112.823.207c.582.041 1.172.27 1.814.712a134.96 134.96 0 0 0 10.072 6.256c1.49.845 3.268 1.187 4.919 1.755-.103.262-.201.53-.303.792l-11.873-4.566-.277.696c3.509 3.406 6.92 6.96 12.326 7.527.058.23.115.459.168.688-.848.836-1.602 1.81-2.566 2.48-2.311 1.613-4.798 2.824-7.723 2.979-.583.03-1.12.873-1.681 1.344.625.37 1.214.985 1.876 1.07 4.08.52 7.742-.948 11.438-2.424 2.464-.982 4.25-2.542 5.658-4.709.222-.343.81-.528 1.266-.635 2.29-.528 4.619-.92 6.89-1.525 2.506-.667 6.588.337 7.697 2.55.633 1.262.356 3.054.27 4.594-.334 5.757-2.622 10.832-6.758 14.661-2.364 2.187-5.596 3.8-8.716 4.732-8.841 2.651-17.896 2.959-26.75.12-2.691-.861-5.282-2.696-7.338-4.688-2.867-2.777-5.19-6.12-7.745-9.218-.091-.114-.236-.242-.232-.362.046-3.864-.296-7.79.276-11.578.624-4.132 3.806-6.25 7.648-7.678 1.94-.722 3.52-2.397 5.29-3.605a23.208 23.208 0 0 1 2.58-1.552c.616-.31 1.192-.456 1.774-.416z"/><path fill="#fff" d="M337.985 182.734c-1.739 1.484-3.467 2.982-5.223 4.445-3.761 3.128-7.41 6.41-11.34 9.312-5.361 3.957-11.314 4.396-17.597 2.32-1.637-.543-3.467-.507-5.212-.732l-.643.664c1.134 3.173 2.204 6.37 3.414 9.52 2.569 6.672 1.213 12.668-3.128 18.09-2.464 3.077-5.326 5.573-8.951 6.826 1.232-.032 2.464-.036 3.695-.076 2.344-.105 4.682-.263 7.021-.408a47.954 47.954 0 0 1 1.825-2.521c5.467-7.054 11.512-13.66 17.2-20.54 5.224-6.32 10.403-12.676 15.415-19.16 1.676-2.167 2.763-4.787 4.12-7.2zm-63.343 29.753c-.336 1.141-.904 2.273-.973 3.43-.372 5.829-.663 11.662-.99 17.493 2.94-.01 5.878-.028 8.817-.068-2.507-1.136-4.078-3.608-4.412-6.64-.432-3.854-.567-7.74-.907-11.606-.077-.862-.47-1.698-.721-2.546-.268-.022-.542-.04-.814-.063zM260.198 103.246c-3.085.825-6.11 2.081-9.249 2.477-4.76.6-9.407-.37-13.804-2.408-.461-.216-1.133.016-1.71.04.08.559.062 1.159.266 1.666.21.514.59.998.996 1.393 4.065 3.939 8.144 7.856 12.12 11.677 2.305-2.16 4.652-4.268 6.892-6.488a131.066 131.066 0 0 0 6.181-6.558c.366-.414.183-1.306.251-1.975-.648.052-1.321.01-1.943.176M217.623 135.652c-6.343-1.097-12.264-2.89-15.394-9.454-1.505-3.158-3.908-5.728-7.477-6.732-.637-.179-1.615 0-2.1.41-.376.316-.516 1.478-.227 1.863.418.557 1.304.783 2.019 1.09.796.343 1.895.393 2.372.973.885 1.076 1.281 2.542 2.116 3.673 1.93 2.613 3.625 5.595 6.099 7.565 4.184 3.335 9.316 3.411 14.389 2.263.855-.195 1.556-1.101 2.327-1.68-.171-.275-.336-.55-.506-.828-1.208.31-2.494 1.052-3.618.857M277.945 134.82c-.597-.15-1.335.251-2.008.396.403.6.692 1.562 1.23 1.73 1.76.548 3.607.808 5.42 1.178 7.147.258 14.673-5.584 17.055-11.997.79-2.125 1.782-3.647 4.411-3.51.516.026 1.41-1.131 1.525-1.845.067-.408-1.214-1.55-1.646-1.436-1.478.39-3.17.871-4.183 1.903a37.356 37.356 0 0 0-5.128 6.584c-3.381 5.507-10.505 8.568-16.676 6.997M261.4 54.558c-2.319.63-4.764 1.068-6.863 2.156-3.576 1.855-7.021 1.616-10.56.255-2.308-.89-4.572-1.89-6.855-2.84a14.08 14.08 0 0 0-.18.305c-.846.117-1.852-.008-2.492.416-.72.473-1.11 1.445-1.642 2.2.765.325 1.504.763 2.304.95 1.581.373 3.27.41 4.79.937 2.867.993 5.662 2.045 8.732.898.304-.112.711-.036 1.047.042 2.823.642 5.485.368 8.15-.908 1.278-.612 2.878-.52 4.306-.859.941-.223 1.832-.647 2.743-.981-.603-.767-1.123-1.627-1.842-2.262-.366-.324-1.14-.442-1.638-.309M240.92 67.303c-1.18-.989-2.559-1.745-3.85-2.606l-.434.541c.074.321.05.723.237.955 1.944 2.41 3.856 4.853 5.903 7.174 2.88 3.266 8.842 3.496 11.826.295 2.28-2.448 4.195-5.239 6.27-7.876-.147-.212-.29-.427-.438-.637-.612.273-1.333.42-1.817.84-1.965 1.696-4.068 3.297-5.715 5.274-1.91 2.292-4.498-1.313-6.229 1.022-.07.093-.672-.103-.948-.287-.353-.235-.63-.592-.936-.897-1.283-1.275-2.488-2.64-3.87-3.798M229.616 92.807c.536.78.903 1.902 1.645 2.274 2.517 1.26 5.255 2.148 7.888.426 2.608-1.704 5.057-3.662 5.428-7.644-.707-1.001-1.24-2.616-2.155-2.878-1.884-.536-2.36 1.253-2.52 2.689-.362 3.27-3.866 5.437-7.657 4.707-.818-.16-1.75.269-2.63.426M268.137 92.85c-.844-.13-1.745-.512-2.53-.35-3.982.83-7.05-1.297-7.731-5.218-.156-.87-1.318-1.567-2.015-2.344-.741.74-1.944 1.375-2.141 2.237-.812 3.542 3.914 9.2 8.188 9.316 1.186-.358 3.028-.744 4.702-1.494.691-.311 1.03-1.408 1.527-2.147"/><path fill="#fff" d="M252.605 63.22c-2.57-.091-5.153.009-7.719.22-.352.029-.614 1.043-1.008 1.76h10.142c-.59-.862-.984-1.966-1.415-1.98M364.266 20.033c-2.758.725-5.506.744-7.697-1.18-3.004-2.636-9.053-2.85-11.843.033-.602.625-1.076 2.025-.776 2.693.29.65 1.716 1.251 2.535 1.126 4.07-.623 8.003-.198 11.95.83 1.04.271 2.325.152 3.35-.209 2.507-.879 4.983-1.405 7.577-.573 2.016.646 4.01 1.37 6.015 2.06.144-.096.29-.19.437-.287-.497-.703-.868-1.57-1.516-2.083-2.95-2.34-6.276-3.404-10.032-2.41M382.394 26.247c-.133.49-.257.695-.227.875a3.76 3.76 0 0 0 .32.993c2.095 4.316 5.611 7.376 9.24 10.308 4.244 3.427 8.64 6.679 11.492 11.496.343.579.951.998 1.435 1.491l.487-.51c-4.57-10.9-14.527-16.842-22.747-24.653M136.205 23.485c.856.41 2.143.218 3.146-.03 4.082-1.01 8.16-1.52 12.354-.72.634.12 1.6-.25 2.024-.737.334-.375.258-1.373 0-1.93-.338-.74-.932-1.746-1.59-1.895-2.691-.622-5.446-1.183-8.195-1.275-.897-.03-1.833 1.445-2.776 2.201a3.787 3.787 0 0 1-1.121.63c-1.976.648-3.948 1.212-6.054.433-.928-.347-1.937-.49-2.809-.703-3.139.614-6.28.966-8.344 3.69-.315.412-.417.982-.613 1.48.534-.104 1.122-.104 1.602-.33 4.022-1.892 8.044-2.9 12.376-.814M116.263 26.26l-.579-.365c-.34.216-.719.391-1.013.655-3.98 3.557-8.004 7.063-11.903 10.708-3.79 3.545-7.228 7.401-9.51 12.139-.264.548-.391 1.16-.583 1.744.785-.046 1.17-.266 1.357-.598 2.728-4.818 7.012-8.129 11.192-11.525 3.755-3.052 7.47-6.13 9.94-10.399.432-.749.735-1.57 1.099-2.358M218.724 106.953c-1.947 0-3.916.33-5.912 1.08-1.113.42-2.079 1.228-2.852 2.272 2.176-.21 4.352-.551 6.533-.604 9.438-.227 16.61 4.077 21.89 11.58 4.773 6.78 7.675 14.351 8.44 22.689.453 4.94 1.565 9.874 1.475 14.8-.15 8.236-.416 16.557-3.389 24.428-.68 1.809-1.44 3.946-2.853 5.049-2.718 2.12-5.192-.099-6.907-1.888-2.818-2.936-5.132-6.364-7.626-9.612-3.864-5.032-4.314-10.897-4.24-16.95.029-2.355-.454-4.72-.7-7.08l-1.007-.087c-.315 1.072-.813 2.13-.916 3.222-.37 3.94-.467 7.914-.94 11.839-.48 3.97-2.61 7.257-5.085 10.283-2.463 3.014-5.06 5.92-7.551 8.912-.63.753-1.079 1.661-1.36 2.738 1.957-1.574 3.755-3.433 5.919-4.653 2.442-1.377 5.168-2.304 7.846-3.199 2.947-.982 5.076.704 7.024 2.63 4.774 4.728 7.335 10.57 8.421 17.089 1.16 6.941.898 13.92.662 20.932-.122 3.57-.312 7.152-.364 10.728l3.822.045c.152-5.457.45-10.92.527-16.378.088-6.12-.501-12.203-2.107-18.147-.109-.413-.374-.85-.314-1.24.162-1.081-.795-2.675 1.056-3.057a2.8 2.8 0 0 1 .621-.059c1.375.03 2.21 1.177 2.565 2.35.56 1.838.806 3.814.898 5.742.457 9.796.818 19.599 1.213 29.397a11.832 11.832 0 0 0-.308.015c0 .476.004.952.007 1.428 3.81.039 7.621.07 11.432.1.081-6.936.168-13.872.313-20.81.099-4.68.473-9.36.9-14.029.104-1.11.736-2.309 1.467-3.178.35-.414 1.286-.776 1.866-.81.195-.01.348.014.428.087.587.533.958 1.693.852 2.52-.266 2.12-1.138 4.188-1.234 6.301-.318 6.904-.4 13.823-.574 20.734-.077 3.072-.149 6.142-.226 9.213 1.186.01 2.373.023 3.56.03.018-4.986-.042-9.977-.084-14.962-.08-9.017-.116-18.01 3.873-26.41 1.853-3.9 4.377-7.466 8.056-9.623 1.69-.995 4.453-.672 6.593-.256 3.674.72 6.619 3 9.311 5.548.821.774 1.652 1.537 2.477 2.302l.578-.489c-1.634-1.99-3.27-3.973-4.898-5.967-2.274-2.781-4.706-5.454-6.792-8.373-3.146-4.407-3.74-9.48-3.394-14.77.15-2.3.184-4.709-2.08-6.791.057 9.224-1.958 17.61-6.459 25.226-1.537 2.6-3.672 5.011-5.997 6.95-4.107 3.432-10.366 1.044-11.376-4.996-1.714-10.248-2.258-20.548-1.54-30.83.67-9.573 2.377-19.088 7.75-27.393 6.126-9.48 14.826-13.64 26.122-12.096a19.537 19.537 0 0 0 4.25.13c-1.817-2.14-4.19-3.206-6.886-3.507-6.667-.744-12.52 1.627-17.736 5.396-4.65 3.36-8.995 7.165-13.296 10.976-1.296 1.15-1.847.99-2.943-.06-5.795-5.554-11.863-10.765-19.264-14.128-3.116-1.416-6.293-2.33-9.537-2.33z"/></svg>